PathFileType	3	(X/Y/Z)	.\ExampleData\generated\LevelGround_ccw_fast_01.trc
DataRate	CameraRate	NumFrames	NumMarkers	Units	OrigDataRate	OrigDataStartFrame	OrigNumFrames
200.0	200.0	13	28	mm	200.0	5208	5952	
Frame#	Time	L_ASIS	R_ASIS	L_PSIS	R_PSIS	R_Thigh_Upper	R_Knee_Lat	R_Thigh_Front	R_Thigh_Rear	L_Thigh_Upper	L_Thigh_Front	L_Thigh_Rear	L_Knee_Lat	L_Shank_Upper	L_Shank_Front	L_Shank_Rear	L_Ankle_Lat	R_Shank_Upper	R_Shank_Rear	R_Shank_Front	R_Ankle_Lat	R_Heel	R_Toe_Tip	R_Toe_Med	R_Toe_Lat	L_Heel	L_Toe_Tip	L_Toe_Med	L_Toe_Lat	
		X1	Y1	Z1	X2	Y2	Z2	X3	Y3	Z3	X4	Y4	Z4	X5	Y5	Z5	X6	Y6	Z6	X7	Y7	Z7	X8	Y8	Z8	X9	Y9	Z9	X10	Y10	Z10	X11	Y11	Z11	X12	Y12	Z12	X13	Y13	Z13	X14	Y14	Z14	X15	Y15	Z15	X16	Y16	Z16	X17	Y17	Z17	X18	Y18	Z18	X19	Y19	Z19	X20	Y20	Z20	X21	Y21	Z21	X22	Y22	Z22	X23	Y23	Z23	X24	Y24	Z24	X25	Y25	Z25	X26	Y26	Z26	X27	Y27	Z27	X28	Y28	Z28	
5208	26.04	-2132.3926	962.78625	-1192.4762	-2399.8465	975.89951	-1224.5572	-2177.9063	1010.0355	-1376.1158	-2303.3824	1020.4561	-1388.4735	-2465.793	797.72594	-1256.9427	-2435.5789	498.4702	-1131.4014	-2465.7191	767.42624	-1177.4941	-2467.4962	732.41823	-1236.672	-2063.9709	808.85764	-1272.5536	-2070.5344	736.88371	-1237.587	-2065.9423	742.38501	-1311.5482	-2073.1465	436.3288	-1271.1228	-2034.3268	400.22853	-1411.3741	-2047.6109	343.33839	-1438.7549	-2045.373	375.64042	-1476.1331	-2054.4722	229.16352	-1643.6062	-2449.9809	356.09344	-1189.6936	-2425.1888	299.25808	-1218.196	-2438.3319	294.01541	-1159.6893	-2392.1904	60.503563	-1191.6436	-2338.1473	25.602138	-1246.0793	-2378.7812	43.929032	-1032.9045	-2351.3635	19.135591	-1026.3198	-2446.3877	16.948804	-1098.6925	-2099.6459	267.25554	-1700.048	-2084.0403	70.150803	-1621.0595	-2111.1384	54.411599	-1638.4696	-2016.358	107.50646	-1668.0742
5209	26.045	-2133.7858	963.67984	-1184.0554	-2401.2432	977.13248	-1215.5335	-2179.4834	1011.0532	-1367.5257	-2304.9843	1022.1367	-1379.4536	-2467.1891	798.7141	-1248.9305	-2436.1144	497.92362	-1127.0221	-2466.5932	767.4851	-1169.8573	-2468.7003	733.14382	-1229.3697	-2066.2366	808.97051	-1262.1867	-2072.7555	737.71649	-1225.5284	-2068.7595	741.64458	-1299.5953	-2076.9229	436.69342	-1252.3813	-2038.387	400.7173	-1392.4002	-2052.2202	344.0334	-1420.0364	-2049.6176	376.59201	-1457.3554	-2059.9846	231.20152	-1625.6872	-2450.3262	356.04914	-1186.7572	-2425.5128	299.50527	-1215.9184	-2438.4983	293.70697	-1157.4482	-2392.0726	60.570092	-1191.7121	-2338.0918	25.640248	-1246.2013	-2378.7059	44.019259	-1033.0799	-2351.3103	19.212477	-1026.4645	-2446.3842	17.134827	-1098.8045	-2104.8216	269.32267	-1682.6875	-2089.831	72.654356	-1602.0049	-2116.9797	56.96226	-1619.459	-2022.0958	109.78051	-1649.0415
5210	26.05	-2135.1084	964.73432	-1175.6845	-2402.5777	978.40572	-1206.5207	-2181.0664	1012.2054	-1358.9667	-2306.579	1023.8999	-1370.4465	-2468.4974	799.72816	-1241.0173	-2436.5383	497.37924	-1122.9073	-2467.3458	767.55566	-1162.3337	-2469.8126	733.89951	-1222.1891	-2068.4476	809.33729	-1251.9119	-2074.9361	738.84616	-1213.5666	-2071.613	741.20322	-1287.7125	-2080.7593	437.46043	-1233.6996	-2042.5881	401.30668	-1373.4249	-2056.9474	344.76081	-1401.1837	-2054.0035	377.47061	-1438.5136	-2065.6655	232.67238	-1607.2757	-2450.5924	355.99504	-1184.0306	-2425.7523	299.72807	-1213.7979	-2438.6152	293.41196	-1155.3749	-2391.9592	60.639573	-1191.7827	-2338.0352	25.671519	-1246.3112	-2378.6446	44.133516	-1033.2506	-2351.2734	19.318945	-1026.5937	-2446.3772	17.313566	-1098.9026	-2110.1089	270.56045	-1665.0205	-2095.9285	74.890892	-1581.7612	-2123.1074	59.163995	-1599.1763	-2028.0462	111.4527	-1628.9155
5211	26.055	-2136.3754	965.94713	-1167.3489	-2403.8624	979.71679	-1197.5173	-2182.6481	1013.4871	-1350.4272	-2308.1635	1025.729	-1361.4498	-2469.7212	800.75882	-1233.1964	-2436.8603	496.8405	-1119.0362	-2467.9942	767.63589	-1154.9169	-2470.8371	734.67921	-1215.121	-2070.6042	809.95353	-1241.7164	-2077.0765	740.26606	-1201.6982	-2074.4899	741.06165	-1275.8951	-2084.6434	438.62238	-1215.1068	-2046.928	401.99914	-1354.488	-2061.7687	345.51251	-1382.226	-2058.5339	378.27131	-1419.6414	-2071.491	233.55055	-1588.3972	-2450.7905	355.93517	-1181.4935	-2425.9178	299.93053	-1211.8184	-2438.6873	293.13146	-1153.4503	-2391.8483	60.711703	-1191.8516	-2337.9781	25.699573	-1246.408	-2378.5922	44.259151	-1033.4123	-2351.2493	19.440039	-1026.7064	-2446.3669	17.481734	-1098.987	-2115.507	270.94953	-1647.0465	-2102.2757	76.820141	-1560.4059	-2129.4678	60.979884	-1577.6975	-2034.1759	112.51435	-1607.7761
5212	26.06	-2137.6011	967.3127	-1159.0354	-2405.1092	981.06127	-1188.5208	-2184.2215	1014.8918	-1341.8962	-2309.7361	1027.6073	-1352.4607	-2470.8655	801.79557	-1225.4601	-2437.0915	496.31018	-1115.3907	-2468.5553	767.71959	-1147.6011	-2471.7784	735.47437	-1208.1577	-2072.7067	810.81026	-1231.5869	-2079.1772	741.96399	-1189.9194	-2077.3751	741.21453	-1264.1376	-2088.5634	440.16529	-1196.6297	-2051.3998	402.79073	-1335.6242	-2066.6594	346.27724	-1363.189	-2063.2068	378.9852	-1400.768	-2077.4371	233.81843	-1569.0751	-2450.9302	355.87363	-1179.1286	-2426.0192	300.11674	-1209.9666	-2438.7199	292.86668	-1151.6593	-2391.7382	60.786317	-1191.9161	-2337.9209	25.727443	-1246.4915	-2378.5447	44.386816	-1033.5622	-2351.2348	19.564435	-1026.8024	-2446.3534	17.63741	-1099.0584	-2121.0153	270.47934	-1628.7597	-2108.8129	78.411065	-1538.0199	-2136.0043	62.38351	-1555.1022	-2040.45	112.9683	-1585.7045
5213	26.065	-2138.7986	968.82262	-1150.7323	-2406.3288	982.43281	-1179.5274	-2185.7805	1016.4113	-1333.3638	-2311.2959	1029.5186	-1343.4765	-2471.9364	802.82724	-1217.7999	-2437.2441	495.79074	-1111.9548	-2469.0456	767.79746	-1140.3807	-2472.6416	736.27482	-1201.2925	-2074.7564	811.89451	-1221.51	-2081.2391	743.92275	-1178.2254	-2080.2521	741.65107	-1252.4348	-2092.5074	442.06933	-1178.2938	-2055.9926	403.67043	-1316.863	-2071.597	347.04068	-1344.096	-2068.0147	379.59889	-1381.918	-2083.4803	233.46572	-1549.3296	-2451.0197	355.81439	-1176.9217	-2426.0655	300.29086	-1208.2323	-2438.718	292.61907	-1149.9894	-2391.6272	60.863458	-1191.9747	-2337.864	25.757724	-1246.5615	-2378.4988	44.509991	-1033.6981	-2351.2276	19.683973	-1026.8821	-2446.3369	17.779701	-1099.1178	-2126.6323	269.1478	-1610.149	-2115.4807	79.641594	-1514.6848	-2142.6603	63.358694	-1531.4715	-2046.832	112.82706	-1562.7796
5214	26.07	-2139.9794	970.46585	-1142.4288	-2407.5307	983.82347	-1170.5331	-2187.321	1018.035	-1324.8215	-2312.8431	1031.4477	-1334.4941	-2472.9405	803.84261	-1210.2077	-2437.3307	495.28442	-1108.7148	-2469.4809	767.8583	-1133.2513	-2473.4324	737.06983	-1194.5199	-2076.7542	813.18983	-1211.4733	-2083.2635	746.12094	-1166.6119	-2083.1036	742.3559	-1240.7815	-2096.464	444.30952	-1160.123	-2060.692	404.62027	-1298.2289	-2076.5611	347.78571	-1324.9675	-2072.9451	380.09467	-1363.1115	-2089.5978	232.48882	-1529.1767	-2451.0659	355.76095	-1174.861	-2426.0654	300.457	-1206.6073	-2438.6868	292.39008	-1148.4309	-2391.5141	60.943474	-1192.0263	-2337.8071	25.792819	-1246.6181	-2378.4521	44.624451	-1033.8186	-2351.2256	19.793157	-1026.9463	-2446.3177	17.908507	-1099.1667	-2132.3541	266.96113	-1591.1988	-2122.2223	80.498035	-1490.4813	-2149.3814	63.898997	-1506.8864	-2053.2857	112.11104	-1539.0764
5215	26.075	-2141.1531	972.22869	-1134.1158	-2408.7231	985.22419	-1161.5332	-2188.8404	1019.7501	-1316.2616	-2314.3786	1033.3799	-1325.5096	-2473.8849	804.83098	-1202.6758	-2437.3645	494.79318	-1105.6586	-2469.8766	767.89009	-1126.2097	-2474.157	737.84898	-1187.8359	-2078.7015	814.67713	-1201.4654	-2085.2522	748.53382	-1155.0746	-2085.9126	743.30988	-1229.174	-2100.4223	446.85659	-1142.14	-2065.4812	405.61603	-1279.7415	-2081.5343	348.49266	-1305.8218	-2077.9812	380.45125	-1344.3641	-2095.7674	230.89033	-1508.6282	-2451.0751	355.71611	-1172.9366	-2426.0268	300.61901	-1205.0847	-2438.6312	292.18099	-1146.9757	-2391.3977	61.027051	-1192.0704	-2337.7496	25.835201	-1246.6613	-2378.4033	44.727785	-1033.9229	-2351.2274	19.888645	-1026.996	-2446.296	18.024287	-1099.2066	-2138.1742	263.93345	-1571.8897	-2128.9845	80.974689	-1465.4872	-2156.1169	64.007205	-1481.4258	-2059.7758	110.847	-1514.664
5216	26.08	-2142.3275	974.09495	-1125.7856	-2409.9124	986.6253	-1152.5232	-2190.3379	1021.5418	-1307.6779	-2315.9037	1035.3016	-1316.5185	-2474.7768	805.78254	-1195.1985	-2437.358	494.31868	-1102.7765	-2470.2467	767.88109	-1119.2537	-2474.8218	738.60272	-1181.2372	-2080.5998	816.3352	-1191.4764	-2087.2075	751.13422	-1143.61	-2088.6636	744.49077	-1217.6093	-2104.3721	449.67782	-1124.3665	-2070.3412	406.62824	-1261.4157	-2086.5013	349.13964	-1286.6741	-2083.1028	380.64466	-1325.6867	-2101.9675	228.67872	-1487.6915	-2451.0533	355.68193	-1171.1399	-2425.9574	300.78011	-1203.6587	-2438.5561	291.99276	-1145.6173	-2391.2773	61.115189	-1192.1066	-2337.6902	25.887601	-1246.6911	-2378.3526	44.819067	-1034.0105	-2351.2319	19.968758	-1027.0321	-2446.2721	18.127798	-1099.2388	-2144.0831	260.08638	-1552.1995	-2135.719	81.073757	-1439.7757	-2162.821	63.694767	-1455.1651	-2066.2684	109.06692	-1489.6052
5217	26.085	-2143.5088	976.04632	-1117.4316	-2411.1039	988.01698	-1143.4987	-2191.8141	1023.3931	-1299.0656	-2317.4199	1037.1998	-1307.516	-2475.6231	806.68876	-1187.7711	-2437.3232	493.86251	-1100.0599	-2470.6042	767.82086	-1112.3825	-2475.4332	739.32324	-1174.7216	-2082.4512	818.14124	-1181.4979	-2089.1321	753.89328	-1132.2149	-2091.3434	745.87379	-1206.0858	-2108.3039	452.73775	-1106.823	-2075.2515	407.62326	-1243.2619	-2091.4482	349.70309	-1267.536	-2088.2873	380.64914	-1307.0852	-2108.1768	225.86814	-1466.37	-2451.0062	355.65985	-1169.4634	-2425.8638	300.94293	-1202.3239	-2438.4658	291.8261	-1144.3496	-2391.1522	61.209253	-1192.1346	-2337.627	25.953162	-1246.7073	-2378.3011	44.898535	-1034.0806	-2351.2387	20.03302	-1027.0557	-2446.2462	18.219922	-1099.2648	-2150.0682	255.44856	-1532.1041	-2142.383	80.805178	-1413.4145	-2169.4533	62.981242	-1428.1754	-2072.7321	106.80708	-1463.9557
5218	26.09	-2144.7018	978.06291	-1109.0484	-2412.3015	989.38976	-1134.456	-2193.2707	1025.2855	-1290.421	-2318.9285	1039.0628	-1298.4983	-2476.4308	807.54314	-1180.391	-2437.2712	493.42637	-1097.5013	-2470.9604	767.7013	-1105.596	-2475.9979	740.00514	-1168.2871	-2084.2583	820.07115	-1171.523	-2091.0282	756.78103	-1120.8867	-2093.9415	747.43222	-1194.6028	-2112.2086	455.99876	-1089.5292	-2080.1902	408.56455	-1225.2861	-2096.3626	350.15846	-1248.4156	-2093.5105	380.4382	-1288.561	-2114.3749	222.4783	-1444.6635	-2450.9393	355.65102	-1167.9004	-2425.7516	301.10966	-1201.0752	-2438.3646	291.68179	-1143.1675	-2391.0218	61.311128	-1192.154	-2337.5572	26.035551	-1246.7095	-2378.2506	44.967037	-1034.1329	-2351.2476	20.081748	-1027.0675	-2446.2182	18.301636	-1099.2858	-2156.1138	250.05522	-1511.5784	-2148.9398	80.186259	-1386.4654	-2175.9791	61.893865	-1400.5224	-2079.138	104.10719	-1437.7646
5219	26.095	-2145.9105	980.12393	-1100.6309	-2413.5081	990.73463	-1125.3926	-2194.7106	1027.1987	-1281.742	-2320.4303	1040.8797	-1289.4623	-2477.207	808.34148	-1173.0562	-2437.2118	493.01223	-1095.0941	-2471.325	767.51726	-1098.8947	-2476.5225	740.64541	-1161.9317	-2086.0242	822.09988	-1161.5466	-2092.8981	759.76696	-1109.6229	-2096.4501	749.13788	-1183.1601	-2116.0777	459.42149	-1072.5033	-2085.1343	409.41403	-1207.4891	-2101.2323	350.48127	-1229.3169	-2098.747	379.98592	-1270.1105	-2120.5416	218.53425	-1422.5689	-2450.8579	355.65676	-1166.4445	-2425.6247	301.28233	-1199.9076	-2438.2563	291.56102	-1142.066	-2390.8856	61.423296	-1192.164	-2337.4768	26.13899	-1246.6973	-2378.2033	45.025412	-1034.1665	-2351.2585	20.115701	-1027.0678	-2446.188	18.37404	-1099.3028	-2162.2014	243.94748	-1490.5977	-2155.3591	79.241285	-1358.9835	-2182.3698	60.467152	-1372.266	-2085.4609	101.00973	-1411.0738
5220	26.1	-2147.1379	982.20825	-1092.1746	-2414.7257	992.04315	-1116.3072	-2196.137	1029.1117	-1273.0276	-2321.9257	1042.6406	-1280.4064	-2477.9584	809.08174	-1165.7662	-2437.1532	492.62244	-1092.8321	-2471.7055	767.26697	-1092.2791	-2477.014	741.2431	-1155.6539	-2087.752	824.20184	-1151.5649	-2094.744	762.82039	-1098.4215	-2098.8647	750.96175	-1171.7583	-2119.9034	462.96522	-1055.7622	-2090.0594	410.13339	-1189.8675	-2106.0456	350.64813	-1210.2408	-2103.9702	379.26827	-1251.7259	-2126.6576	214.06623	-1400.0809	-2450.7664	355.67888	-1165.0901	-2425.4852	301.46295	-1198.8167	-2438.1439	291.46558	-1141.0405	-2390.7431	61.548771	-1192.1636	-2337.381	26.26806	-1246.6701	-2378.1613	45.074218	-1034.1807	-2351.272	20.135806	-1027.0568	-2446.1553	18.438319	-1099.3166	-2168.3101	237.17171	-1469.1385	-2161.6171	78.001176	-1331.0179	-2188.6034	58.742355	-1343.4609	-2091.6789	97.559571	-1383.9183
